{
	"asset":{
		"generator":"Khronos glTF Blender I/O v5.0.21",
		"version":"2.0"
	},
	"scene":0,
	"scenes":[
		{
			"name":"Scene",
			"nodes":[
				0
			]
		}
	],
	"nodes":[
		{
			"mesh":0,
			"name":"ShippingContainer",
			"rotation":[
				0,
				0.7071068286895752,
				0,
				0.7071067094802856
			],
			"translation":[
				7.852402687072754,
				1.600000023841858,
				0
			]
		}
	],
	"meshes":[
		{
			"name":"Cube.001",
			"primitives":[
				{
					"attributes":{
						"POSITION":0,
						"NORMAL":1,
						"TEXCOORD_0":2,
						"TANGENT":3
					},
					"indices":4
				}
			]
		}
	],
	"accessors":[
		{
			"bufferView":0,
			"componentType":5126,
			"count":9963,
			"max":[
				5.302483558654785,
				1.5816782712936401,
				1.574334740638733
			],
			"min":[
				-5.30495548248291,
				-1.5823842287063599,
				-1.589727759361267
			],
			"type":"VEC3"
		},
		{
			"bufferView":1,
			"componentType":5126,
			"count":9963,
			"type":"VEC3"
		},
		{
			"bufferView":2,
			"componentType":5126,
			"count":9963,
			"type":"VEC2"
		},
		{
			"bufferView":3,
			"componentType":5126,
			"count":9963,
			"type":"VEC4"
		},
		{
			"bufferView":4,
			"componentType":5123,
			"count":19044,
			"type":"SCALAR"
		}
	],
	"bufferViews":[
		{
			"buffer":0,
			"byteLength":119556,
			"byteOffset":0,
			"target":34962
		},
		{
			"buffer":0,
			"byteLength":119556,
			"byteOffset":119556,
			"target":34962
		},
		{
			"buffer":0,
			"byteLength":79704,
			"byteOffset":239112,
			"target":34962
		},
		{
			"buffer":0,
			"byteLength":159408,
			"byteOffset":318816,
			"target":34962
		},
		{
			"buffer":0,
			"byteLength":38088,
			"byteOffset":478224,
			"target":34963
		}
	],
	"buffers":[
		{
			"byteLength":516312,
			"uri":"ShippingContainer.bin"
		}
	]
}
