{
	"asset":{
		"generator":"Khronos glTF Blender I/O v5.0.21",
		"version":"2.0"
	},
	"scene":0,
	"scenes":[
		{
			"name":"Scene",
			"nodes":[
				0
			]
		}
	],
	"nodes":[
		{
			"mesh":0,
			"name":"RoofPannel"
		}
	],
	"meshes":[
		{
			"name":"Cube.012",
			"primitives":[
				{
					"attributes":{
						"POSITION":0,
						"NORMAL":1,
						"TEXCOORD_0":2,
						"TANGENT":3
					},
					"indices":4
				}
			]
		}
	],
	"accessors":[
		{
			"bufferView":0,
			"componentType":5126,
			"count":976,
			"max":[
				4.645645618438721,
				3.302201271057129,
				12.859354972839355
			],
			"min":[
				-0.03954871743917465,
				-0.0702156126499176,
				-13.344425201416016
			],
			"type":"VEC3"
		},
		{
			"bufferView":1,
			"componentType":5126,
			"count":976,
			"type":"VEC3"
		},
		{
			"bufferView":2,
			"componentType":5126,
			"count":976,
			"type":"VEC2"
		},
		{
			"bufferView":3,
			"componentType":5126,
			"count":976,
			"type":"VEC4"
		},
		{
			"bufferView":4,
			"componentType":5123,
			"count":1944,
			"type":"SCALAR"
		}
	],
	"bufferViews":[
		{
			"buffer":0,
			"byteLength":11712,
			"byteOffset":0,
			"target":34962
		},
		{
			"buffer":0,
			"byteLength":11712,
			"byteOffset":11712,
			"target":34962
		},
		{
			"buffer":0,
			"byteLength":7808,
			"byteOffset":23424,
			"target":34962
		},
		{
			"buffer":0,
			"byteLength":15616,
			"byteOffset":31232,
			"target":34962
		},
		{
			"buffer":0,
			"byteLength":3888,
			"byteOffset":46848,
			"target":34963
		}
	],
	"buffers":[
		{
			"byteLength":50736,
			"uri":"WarehouseRoofPannel.bin"
		}
	]
}
