{
	"asset":{
		"generator":"Khronos glTF Blender I/O v5.0.21",
		"version":"2.0"
	},
	"scene":0,
	"scenes":[
		{
			"name":"Scene",
			"nodes":[
				0
			]
		}
	],
	"nodes":[
		{
			"mesh":0,
			"name":"VerticalBeamCorner"
		}
	],
	"meshes":[
		{
			"name":"Cube.008",
			"primitives":[
				{
					"attributes":{
						"POSITION":0,
						"NORMAL":1,
						"TEXCOORD_0":2,
						"TANGENT":3
					},
					"indices":4
				}
			]
		}
	],
	"accessors":[
		{
			"bufferView":0,
			"componentType":5126,
			"count":116,
			"max":[
				0.41933298110961914,
				9.711721420288086,
				0.3499999940395355
			],
			"min":[
				-0.4333763122558594,
				-0.007621288299560547,
				-0.5
			],
			"type":"VEC3"
		},
		{
			"bufferView":1,
			"componentType":5126,
			"count":116,
			"type":"VEC3"
		},
		{
			"bufferView":2,
			"componentType":5126,
			"count":116,
			"type":"VEC2"
		},
		{
			"bufferView":3,
			"componentType":5126,
			"count":116,
			"type":"VEC4"
		},
		{
			"bufferView":4,
			"componentType":5123,
			"count":276,
			"type":"SCALAR"
		}
	],
	"bufferViews":[
		{
			"buffer":0,
			"byteLength":1392,
			"byteOffset":0,
			"target":34962
		},
		{
			"buffer":0,
			"byteLength":1392,
			"byteOffset":1392,
			"target":34962
		},
		{
			"buffer":0,
			"byteLength":928,
			"byteOffset":2784,
			"target":34962
		},
		{
			"buffer":0,
			"byteLength":1856,
			"byteOffset":3712,
			"target":34962
		},
		{
			"buffer":0,
			"byteLength":552,
			"byteOffset":5568,
			"target":34963
		}
	],
	"buffers":[
		{
			"byteLength":6120,
			"uri":"WarehouseVerticalBeamCorner.bin"
		}
	]
}
