{
	"asset":{
		"generator":"Khronos glTF Blender I/O v5.0.21",
		"version":"2.0"
	},
	"scene":0,
	"scenes":[
		{
			"name":"Scene",
			"nodes":[
				0
			]
		}
	],
	"nodes":[
		{
			"mesh":0,
			"name":"ak_12_low_poly"
		}
	],
	"meshes":[
		{
			"name":"Cylinder.003",
			"primitives":[
				{
					"attributes":{
						"POSITION":0,
						"NORMAL":1,
						"TEXCOORD_0":2,
						"TANGENT":3
					},
					"indices":4
				}
			]
		}
	],
	"accessors":[
		{
			"bufferView":0,
			"componentType":5126,
			"count":116518,
			"max":[
				0.025858882814645767,
				0.20800788700580597,
				0.8730771541595459
			],
			"min":[
				-0.03860687091946602,
				-0.14420439302921295,
				-0.3179474174976349
			],
			"type":"VEC3"
		},
		{
			"bufferView":1,
			"componentType":5126,
			"count":116518,
			"type":"VEC3"
		},
		{
			"bufferView":2,
			"componentType":5126,
			"count":116518,
			"type":"VEC2"
		},
		{
			"bufferView":3,
			"componentType":5126,
			"count":116518,
			"type":"VEC4"
		},
		{
			"bufferView":4,
			"componentType":5125,
			"count":401382,
			"type":"SCALAR"
		}
	],
	"bufferViews":[
		{
			"buffer":0,
			"byteLength":1398216,
			"byteOffset":0,
			"target":34962
		},
		{
			"buffer":0,
			"byteLength":1398216,
			"byteOffset":1398216,
			"target":34962
		},
		{
			"buffer":0,
			"byteLength":932144,
			"byteOffset":2796432,
			"target":34962
		},
		{
			"buffer":0,
			"byteLength":1864288,
			"byteOffset":3728576,
			"target":34962
		},
		{
			"buffer":0,
			"byteLength":1605528,
			"byteOffset":5592864,
			"target":34963
		}
	],
	"buffers":[
		{
			"byteLength":7198392,
			"uri":"AK12.bin"
		}
	]
}
