{
	"asset":{
		"generator":"Khronos glTF Blender I/O v5.0.21",
		"version":"2.0"
	},
	"scene":0,
	"scenes":[
		{
			"name":"Scene",
			"nodes":[
				0
			]
		}
	],
	"nodes":[
		{
			"mesh":0,
			"name":"ak_12_low_poly",
			"translation":[
				-0.16380956768989563,
				1.871274471282959,
				0.6903248429298401
			]
		}
	],
	"materials":[
		{
			"doubleSided":true,
			"name":"ak_12_PBS",
			"normalTexture":{
				"index":0
			},
			"pbrMetallicRoughness":{
				"metallicRoughnessTexture":{
					"index":1
				}
			}
		}
	],
	"meshes":[
		{
			"name":"Cylinder.003",
			"primitives":[
				{
					"attributes":{
						"POSITION":0,
						"NORMAL":1,
						"TEXCOORD_0":2
					},
					"indices":3,
					"material":0
				}
			]
		}
	],
	"textures":[
		{
			"sampler":0,
			"source":0
		},
		{
			"sampler":0,
			"source":1
		}
	],
	"images":[
		{
			"mimeType":"image/png",
			"name":"ak_12_transmissive_norm",
			"uri":"ak_12_transmissive_norm.png"
		},
		{
			"mimeType":"image/png",
			"name":"ak_12_transmissive_metal-ak_12_rough",
			"uri":"ak_12_transmissive_metal-ak_12_rough.png"
		}
	],
	"accessors":[
		{
			"bufferView":0,
			"componentType":5126,
			"count":116436,
			"max":[
				0.0258588045835495,
				0.14692223072052002,
				0.7294427156448364
			],
			"min":[
				-0.03860677778720856,
				-0.2052903175354004,
				-0.461581826210022
			],
			"type":"VEC3"
		},
		{
			"bufferView":1,
			"componentType":5126,
			"count":116436,
			"type":"VEC3"
		},
		{
			"bufferView":2,
			"componentType":5126,
			"count":116436,
			"type":"VEC2"
		},
		{
			"bufferView":3,
			"componentType":5125,
			"count":401406,
			"type":"SCALAR"
		}
	],
	"bufferViews":[
		{
			"buffer":0,
			"byteLength":1397232,
			"byteOffset":0,
			"target":34962
		},
		{
			"buffer":0,
			"byteLength":1397232,
			"byteOffset":1397232,
			"target":34962
		},
		{
			"buffer":0,
			"byteLength":931488,
			"byteOffset":2794464,
			"target":34962
		},
		{
			"buffer":0,
			"byteLength":1605624,
			"byteOffset":3725952,
			"target":34963
		}
	],
	"samplers":[
		{
			"magFilter":9729,
			"minFilter":9987
		}
	],
	"buffers":[
		{
			"byteLength":5331576,
			"uri":"AK12.bin"
		}
	]
}
