{
	"asset":{
		"generator":"Khronos glTF Blender I/O v5.0.21",
		"version":"2.0"
	},
	"scene":0,
	"scenes":[
		{
			"name":"Scene",
			"nodes":[
				0
			]
		}
	],
	"nodes":[
		{
			"mesh":0,
			"name":"Arrow"
		}
	],
	"meshes":[
		{
			"name":"Cone",
			"primitives":[
				{
					"attributes":{
						"POSITION":0,
						"NORMAL":1,
						"TEXCOORD_0":2,
						"TANGENT":3
					},
					"indices":4
				}
			]
		}
	],
	"accessors":[
		{
			"bufferView":0,
			"componentType":5126,
			"count":320,
			"max":[
				0.19999998807907104,
				0.20000000298023224,
				2.3795928955078125
			],
			"min":[
				-0.19999998807907104,
				-0.19999997317790985,
				0.9943646192550659
			],
			"type":"VEC3"
		},
		{
			"bufferView":1,
			"componentType":5126,
			"count":320,
			"type":"VEC3"
		},
		{
			"bufferView":2,
			"componentType":5126,
			"count":320,
			"type":"VEC2"
		},
		{
			"bufferView":3,
			"componentType":5126,
			"count":320,
			"type":"VEC4"
		},
		{
			"bufferView":4,
			"componentType":5123,
			"count":558,
			"type":"SCALAR"
		}
	],
	"bufferViews":[
		{
			"buffer":0,
			"byteLength":3840,
			"byteOffset":0,
			"target":34962
		},
		{
			"buffer":0,
			"byteLength":3840,
			"byteOffset":3840,
			"target":34962
		},
		{
			"buffer":0,
			"byteLength":2560,
			"byteOffset":7680,
			"target":34962
		},
		{
			"buffer":0,
			"byteLength":5120,
			"byteOffset":10240,
			"target":34962
		},
		{
			"buffer":0,
			"byteLength":1116,
			"byteOffset":15360,
			"target":34963
		}
	],
	"buffers":[
		{
			"byteLength":16476,
			"uri":"Arrow.bin"
		}
	]
}
