{
    "asset" : {
        "generator" : "Khronos glTF Blender I/O v1.2.75",
        "version" : "2.0"
    },
    "scene" : 0,
    "scenes" : [
        {
            "name" : "Scene",
            "nodes" : [
                0
            ]
        }
    ],
    "nodes" : [
        {
            "mesh" : 0,
            "name" : "Cylinder"
        }
    ],
    "meshes" : [
        {
            "name" : "Cylinder",
            "primitives" : [
                {
                    "attributes" : {
                        "POSITION" : 0,
                        "NORMAL" : 1,
                        "TEXCOORD_0" : 2
                    },
                    "indices" : 3
                }
            ]
        }
    ],
    "accessors" : [
        {
            "bufferView" : 0,
            "componentType" : 5126,
            "count" : 652,
            "max" : [
                0.9989309310913086,
                3.960031747817993,
                2.604163885116577
            ],
            "min" : [
                -0.513242781162262,
                3.8257205486297607,
                1.9319672584533691
            ],
            "type" : "VEC3"
        },
        {
            "bufferView" : 1,
            "componentType" : 5126,
            "count" : 652,
            "type" : "VEC3"
        },
        {
            "bufferView" : 2,
            "componentType" : 5126,
            "count" : 652,
            "type" : "VEC2"
        },
        {
            "bufferView" : 3,
            "componentType" : 5123,
            "count" : 654,
            "type" : "SCALAR"
        }
    ],
    "bufferViews" : [
        {
            "buffer" : 0,
            "byteLength" : 7824,
            "byteOffset" : 0
        },
        {
            "buffer" : 0,
            "byteLength" : 7824,
            "byteOffset" : 7824
        },
        {
            "buffer" : 0,
            "byteLength" : 5216,
            "byteOffset" : 15648
        },
        {
            "buffer" : 0,
            "byteLength" : 1308,
            "byteOffset" : 20864
        }
    ],
    "buffers" : [
        {
            "byteLength" : 22172,
            "uri" : "data:application/octet-stream;base64,"
        }
    ]
}
