{
	"asset":{
		"generator":"Khronos glTF Blender I/O v5.0.21",
		"version":"2.0"
	},
	"scene":0,
	"scenes":[
		{
			"name":"Scene",
			"nodes":[
				0
			]
		}
	],
	"nodes":[
		{
			"mesh":0,
			"name":"FirstPersonArmsNoAnim",
			"translation":[
				0.0016468372195959091,
				2.0499331951141357,
				-0.11683463305234909
			]
		}
	],
	"meshes":[
		{
			"name":"50kCharacter.003",
			"primitives":[
				{
					"attributes":{
						"POSITION":0,
						"NORMAL":1,
						"TEXCOORD_0":2
					},
					"indices":3
				}
			]
		}
	],
	"accessors":[
		{
			"bufferView":0,
			"componentType":5126,
			"count":33262,
			"max":[
				0.307282030582428,
				-0.041966915130615234,
				1.1004208326339722
			],
			"min":[
				-0.4006255567073822,
				-0.5169785022735596,
				0.035600773990154266
			],
			"type":"VEC3"
		},
		{
			"bufferView":1,
			"componentType":5126,
			"count":33262,
			"type":"VEC3"
		},
		{
			"bufferView":2,
			"componentType":5126,
			"count":33262,
			"type":"VEC2"
		},
		{
			"bufferView":3,
			"componentType":5123,
			"count":49734,
			"type":"SCALAR"
		}
	],
	"bufferViews":[
		{
			"buffer":0,
			"byteLength":399144,
			"byteOffset":0,
			"target":34962
		},
		{
			"buffer":0,
			"byteLength":399144,
			"byteOffset":399144,
			"target":34962
		},
		{
			"buffer":0,
			"byteLength":266096,
			"byteOffset":798288,
			"target":34962
		},
		{
			"buffer":0,
			"byteLength":99468,
			"byteOffset":1064384,
			"target":34963
		}
	],
	"buffers":[
		{
			"byteLength":1163852,
			"uri":"FPSCharacterArmsNoAnim.bin"
		}
	]
}
