{
	"asset":{
		"generator":"Khronos glTF Blender I/O v4.5.48",
		"version":"2.0"
	},
	"scene":0,
	"scenes":[
		{
			"name":"Scene",
			"nodes":[
				0
			]
		}
	],
	"nodes":[
		{
			"mesh":0,
			"name":"Orc_Automatic_Retopo_Finished",
			"rotation":[
				0.7071068286895752,
				0,
				0,
				0.7071068286895752
			]
		}
	],
	"materials":[
		{
			"doubleSided":true,
			"name":"OrcBody",
			"normalTexture":{
				"index":0
			},
			"pbrMetallicRoughness":{
				"baseColorTexture":{
					"index":1
				},
				"metallicFactor":0
			}
		}
	],
	"meshes":[
		{
			"name":"Orc_Automatic_Retopo_Finished",
			"primitives":[
				{
					"attributes":{
						"POSITION":0,
						"NORMAL":1,
						"TEXCOORD_0":2
					},
					"indices":3,
					"material":0
				}
			]
		}
	],
	"textures":[
		{
			"sampler":0,
			"source":0
		},
		{
			"sampler":0,
			"source":1
		}
	],
	"images":[
		{
			"mimeType":"image/png",
			"name":"OrcNormals",
			"uri":"OrcNormals.png"
		},
		{
			"mimeType":"image/png",
			"name":"OrcColor",
			"uri":"OrcColor.png"
		}
	],
	"accessors":[
		{
			"bufferView":0,
			"componentType":5126,
			"count":11626,
			"max":[
				1.1979447603225708,
				1.8770380020141602,
				0.2878861725330353
			],
			"min":[
				-1.1979448795318604,
				0.1646948605775833,
				-0.18212227523326874
			],
			"type":"VEC3"
		},
		{
			"bufferView":1,
			"componentType":5126,
			"count":11626,
			"type":"VEC3"
		},
		{
			"bufferView":2,
			"componentType":5126,
			"count":11626,
			"type":"VEC2"
		},
		{
			"bufferView":3,
			"componentType":5123,
			"count":63972,
			"type":"SCALAR"
		}
	],
	"bufferViews":[
		{
			"buffer":0,
			"byteLength":139512,
			"byteOffset":0,
			"target":34962
		},
		{
			"buffer":0,
			"byteLength":139512,
			"byteOffset":139512,
			"target":34962
		},
		{
			"buffer":0,
			"byteLength":93008,
			"byteOffset":279024,
			"target":34962
		},
		{
			"buffer":0,
			"byteLength":127944,
			"byteOffset":372032,
			"target":34963
		}
	],
	"samplers":[
		{
			"magFilter":9729,
			"minFilter":9987
		}
	],
	"buffers":[
		{
			"byteLength":499976,
			"uri":"Orc.bin"
		}
	]
}
