{
	"asset":{
		"generator":"Khronos glTF Blender I/O v5.0.21",
		"version":"2.0"
	},
	"scene":0,
	"scenes":[
		{
			"name":"Scene",
			"nodes":[
				0
			]
		}
	],
	"nodes":[
		{
			"mesh":0,
			"name":"Cube"
		}
	],
	"materials":[
		{
			"doubleSided":true,
			"name":"Material",
			"pbrMetallicRoughness":{
				"baseColorTexture":{
					"index":0
				},
				"metallicRoughnessTexture":{
					"index":1
				}
			}
		}
	],
	"meshes":[
		{
			"name":"Cube.001",
			"primitives":[
				{
					"attributes":{
						"POSITION":0,
						"NORMAL":1,
						"TEXCOORD_0":2
					},
					"indices":3,
					"material":0
				}
			]
		}
	],
	"textures":[
		{
			"sampler":0,
			"source":0
		},
		{
			"sampler":0,
			"source":1
		}
	],
	"images":[
		{
			"mimeType":"image/png",
			"name":"RedDiffuse",
			"uri":"RedDiffuse.png"
		},
		{
			"mimeType":"image/png",
			"name":"RoughnessMap",
			"uri":"RoughnessMap.png"
		}
	],
	"accessors":[
		{
			"bufferView":0,
			"componentType":5126,
			"count":8592,
			"max":[
				25.137699127197266,
				7.498326301574707,
				7.463512420654297
			],
			"min":[
				-25.1494197845459,
				-7.501673698425293,
				-7.536487579345703
			],
			"type":"VEC3"
		},
		{
			"bufferView":1,
			"componentType":5126,
			"count":8592,
			"type":"VEC3"
		},
		{
			"bufferView":2,
			"componentType":5126,
			"count":8592,
			"type":"VEC2"
		},
		{
			"bufferView":3,
			"componentType":5123,
			"count":19044,
			"type":"SCALAR"
		}
	],
	"bufferViews":[
		{
			"buffer":0,
			"byteLength":103104,
			"byteOffset":0,
			"target":34962
		},
		{
			"buffer":0,
			"byteLength":103104,
			"byteOffset":103104,
			"target":34962
		},
		{
			"buffer":0,
			"byteLength":68736,
			"byteOffset":206208,
			"target":34962
		},
		{
			"buffer":0,
			"byteLength":38088,
			"byteOffset":274944,
			"target":34963
		}
	],
	"samplers":[
		{
			"magFilter":9729,
			"minFilter":9987
		}
	],
	"buffers":[
		{
			"byteLength":313032,
			"uri":"ShippingContainer.bin"
		}
	]
}
