{
	"asset":{
		"generator":"Khronos glTF Blender I/O v4.5.48",
		"version":"2.0"
	},
	"scene":0,
	"scenes":[
		{
			"name":"Scene",
			"nodes":[
				0
			]
		}
	],
	"nodes":[
		{
			"mesh":0,
			"name":"leaves"
		}
	],
	"meshes":[
		{
			"name":"leaves",
			"primitives":[
				{
					"attributes":{
						"POSITION":0,
						"NORMAL":1,
						"TEXCOORD_0":2
					},
					"indices":3
				}
			]
		}
	],
	"accessors":[
		{
			"bufferView":0,
			"componentType":5126,
			"count":15644,
			"max":[
				16.14205551147461,
				37.56553268432617,
				14.139999389648438
			],
			"min":[
				-16.125268936157227,
				7.858994007110596,
				-15.152445793151855
			],
			"type":"VEC3"
		},
		{
			"bufferView":1,
			"componentType":5126,
			"count":15644,
			"type":"VEC3"
		},
		{
			"bufferView":2,
			"componentType":5126,
			"count":15644,
			"type":"VEC2"
		},
		{
			"bufferView":3,
			"componentType":5123,
			"count":30552,
			"type":"SCALAR"
		}
	],
	"bufferViews":[
		{
			"buffer":0,
			"byteLength":187728,
			"byteOffset":0,
			"target":34962
		},
		{
			"buffer":0,
			"byteLength":187728,
			"byteOffset":187728,
			"target":34962
		},
		{
			"buffer":0,
			"byteLength":125152,
			"byteOffset":375456,
			"target":34962
		},
		{
			"buffer":0,
			"byteLength":61104,
			"byteOffset":500608,
			"target":34963
		}
	],
	"buffers":[
		{
			"byteLength":561712,
			"uri":"TreeLeaves.bin"
		}
	]
}
