{
	"asset":{
		"generator":"Khronos glTF Blender I/O v4.5.48",
		"version":"2.0"
	},
	"scene":0,
	"scenes":[
		{
			"name":"Scene",
			"nodes":[
				0
			]
		}
	],
	"nodes":[
		{
			"mesh":0,
			"name":"tree"
		}
	],
	"meshes":[
		{
			"name":"tree",
			"primitives":[
				{
					"attributes":{
						"POSITION":0,
						"NORMAL":1,
						"TEXCOORD_0":2
					},
					"indices":3
				}
			]
		}
	],
	"accessors":[
		{
			"bufferView":0,
			"componentType":5126,
			"count":9905,
			"max":[
				13.402460098266602,
				34.56315994262695,
				11.915273666381836
			],
			"min":[
				-13.977598190307617,
				10.970709800720215,
				-11.848123550415039
			],
			"type":"VEC3"
		},
		{
			"bufferView":1,
			"componentType":5126,
			"count":9905,
			"type":"VEC3"
		},
		{
			"bufferView":2,
			"componentType":5126,
			"count":9905,
			"type":"VEC2"
		},
		{
			"bufferView":3,
			"componentType":5123,
			"count":47088,
			"type":"SCALAR"
		}
	],
	"bufferViews":[
		{
			"buffer":0,
			"byteLength":118860,
			"byteOffset":0,
			"target":34962
		},
		{
			"buffer":0,
			"byteLength":118860,
			"byteOffset":118860,
			"target":34962
		},
		{
			"buffer":0,
			"byteLength":79240,
			"byteOffset":237720,
			"target":34962
		},
		{
			"buffer":0,
			"byteLength":94176,
			"byteOffset":316960,
			"target":34963
		}
	],
	"buffers":[
		{
			"byteLength":411136,
			"uri":"TreeBranches.bin"
		}
	]
}
