{
	"asset":{
		"generator":"Khronos glTF Blender I/O v5.0.21",
		"version":"2.0"
	},
	"scene":0,
	"scenes":[
		{
			"name":"Scene",
			"nodes":[
				0
			]
		}
	],
	"nodes":[
		{
			"mesh":0,
			"name":"WarehouseDoorWall"
		}
	],
	"materials":[
		{
			"doubleSided":true,
			"name":"Brick",
			"pbrMetallicRoughness":{
				"baseColorTexture":{
					"index":0
				},
				"metallicFactor":0,
				"roughnessFactor":0.5
			}
		},
		{
			"doubleSided":true,
			"name":"Stone",
			"pbrMetallicRoughness":{
				"baseColorTexture":{
					"index":1
				},
				"metallicFactor":0,
				"roughnessFactor":0.5
			}
		},
		{
			"doubleSided":true,
			"name":"Metal",
			"pbrMetallicRoughness":{
				"baseColorTexture":{
					"index":2
				},
				"metallicFactor":0,
				"roughnessFactor":0.5
			}
		}
	],
	"meshes":[
		{
			"name":"Cube.003",
			"primitives":[
				{
					"attributes":{
						"POSITION":0,
						"NORMAL":1,
						"TEXCOORD_0":2
					},
					"indices":3,
					"material":0
				},
				{
					"attributes":{
						"POSITION":4,
						"NORMAL":5,
						"TEXCOORD_0":6
					},
					"indices":7,
					"material":1
				},
				{
					"attributes":{
						"POSITION":8,
						"NORMAL":9,
						"TEXCOORD_0":10
					},
					"indices":11,
					"material":2
				}
			]
		}
	],
	"textures":[
		{
			"sampler":0,
			"source":0
		},
		{
			"sampler":0,
			"source":0
		},
		{
			"sampler":0,
			"source":0
		}
	],
	"images":[
		{
			"mimeType":"image/png",
			"name":"WarehouseDoorway",
			"uri":"WarehouseDoorway.png"
		}
	],
	"accessors":[
		{
			"bufferView":0,
			"componentType":5126,
			"count":76,
			"max":[
				2.3000001907348633,
				4.600000381469727,
				0.19999998807907104
			],
			"min":[
				-2.3000001907348633,
				2.384185791015625e-07,
				-0.19999998807907104
			],
			"type":"VEC3"
		},
		{
			"bufferView":1,
			"componentType":5126,
			"count":76,
			"type":"VEC3"
		},
		{
			"bufferView":2,
			"componentType":5126,
			"count":76,
			"type":"VEC2"
		},
		{
			"bufferView":3,
			"componentType":5123,
			"count":186,
			"type":"SCALAR"
		},
		{
			"bufferView":4,
			"componentType":5126,
			"count":120,
			"max":[
				0.8433334231376648,
				3.070500373840332,
				0.2499999850988388
			],
			"min":[
				-0.8433334231376648,
				2.384185791015625e-07,
				-0.2499999850988388
			],
			"type":"VEC3"
		},
		{
			"bufferView":5,
			"componentType":5126,
			"count":120,
			"type":"VEC3"
		},
		{
			"bufferView":6,
			"componentType":5126,
			"count":120,
			"type":"VEC2"
		},
		{
			"bufferView":7,
			"componentType":5123,
			"count":264,
			"type":"SCALAR"
		},
		{
			"bufferView":8,
			"componentType":5126,
			"count":44,
			"max":[
				0.7666667699813843,
				2.9900002479553223,
				0.05000091344118118
			],
			"min":[
				-0.7666667699813843,
				2.384185791015625e-07,
				-0.04999999701976776
			],
			"type":"VEC3"
		},
		{
			"bufferView":9,
			"componentType":5126,
			"count":44,
			"type":"VEC3"
		},
		{
			"bufferView":10,
			"componentType":5126,
			"count":44,
			"type":"VEC2"
		},
		{
			"bufferView":11,
			"componentType":5123,
			"count":66,
			"type":"SCALAR"
		}
	],
	"bufferViews":[
		{
			"buffer":0,
			"byteLength":912,
			"byteOffset":0,
			"target":34962
		},
		{
			"buffer":0,
			"byteLength":912,
			"byteOffset":912,
			"target":34962
		},
		{
			"buffer":0,
			"byteLength":608,
			"byteOffset":1824,
			"target":34962
		},
		{
			"buffer":0,
			"byteLength":372,
			"byteOffset":2432,
			"target":34963
		},
		{
			"buffer":0,
			"byteLength":1440,
			"byteOffset":2804,
			"target":34962
		},
		{
			"buffer":0,
			"byteLength":1440,
			"byteOffset":4244,
			"target":34962
		},
		{
			"buffer":0,
			"byteLength":960,
			"byteOffset":5684,
			"target":34962
		},
		{
			"buffer":0,
			"byteLength":528,
			"byteOffset":6644,
			"target":34963
		},
		{
			"buffer":0,
			"byteLength":528,
			"byteOffset":7172,
			"target":34962
		},
		{
			"buffer":0,
			"byteLength":528,
			"byteOffset":7700,
			"target":34962
		},
		{
			"buffer":0,
			"byteLength":352,
			"byteOffset":8228,
			"target":34962
		},
		{
			"buffer":0,
			"byteLength":132,
			"byteOffset":8580,
			"target":34963
		}
	],
	"samplers":[
		{
			"magFilter":9729,
			"minFilter":9987
		}
	],
	"buffers":[
		{
			"byteLength":8712,
			"uri":"WarehouseDoorway.bin"
		}
	]
}
