{
	"asset":{
		"generator":"Khronos glTF Blender I/O v5.0.21",
		"version":"2.0"
	},
	"scene":0,
	"scenes":[
		{
			"name":"Scene",
			"nodes":[
				0
			]
		}
	],
	"nodes":[
		{
			"mesh":0,
			"name":"Asteroid"
		}
	],
	"meshes":[
		{
			"name":"Icosphere",
			"primitives":[
				{
					"attributes":{
						"POSITION":0,
						"NORMAL":1,
						"TEXCOORD_0":2,
						"TANGENT":3
					},
					"indices":4
				}
			]
		}
	],
	"accessors":[
		{
			"bufferView":0,
			"componentType":5126,
			"count":770,
			"max":[
				2.048583984375,
				2.72027587890625,
				2.077523708343506
			],
			"min":[
				-2.655876874923706,
				-2.6242892742156982,
				-2.3926711082458496
			],
			"type":"VEC3"
		},
		{
			"bufferView":1,
			"componentType":5126,
			"count":770,
			"type":"VEC3"
		},
		{
			"bufferView":2,
			"componentType":5126,
			"count":770,
			"type":"VEC2"
		},
		{
			"bufferView":3,
			"componentType":5126,
			"count":770,
			"type":"VEC4"
		},
		{
			"bufferView":4,
			"componentType":5123,
			"count":774,
			"type":"SCALAR"
		}
	],
	"bufferViews":[
		{
			"buffer":0,
			"byteLength":9240,
			"byteOffset":0,
			"target":34962
		},
		{
			"buffer":0,
			"byteLength":9240,
			"byteOffset":9240,
			"target":34962
		},
		{
			"buffer":0,
			"byteLength":6160,
			"byteOffset":18480,
			"target":34962
		},
		{
			"buffer":0,
			"byteLength":12320,
			"byteOffset":24640,
			"target":34962
		},
		{
			"buffer":0,
			"byteLength":1548,
			"byteOffset":36960,
			"target":34963
		}
	],
	"buffers":[
		{
			"byteLength":38508,
			"uri":"Asteroid.bin"
		}
	]
}
